<mxfile host="app.diagrams.net" modified="2022-11-06T08:06:33.589Z" agent="5.0 (Macintosh; Intel Mac OS X 10_15_7) AppleWebKit/537.36 (KHTML, like Gecko) Chrome/107.0.0.0 Safari/537.36" etag="lb-EcJdplAPZ562Mqzhn" version="20.5.1" type="github">
  <diagram id="-Xi5xI4LJipwFWlXeyZj" name="第 1 页">
    <mxGraphModel dx="1378" dy="721" grid="0" gridSize="10" guides="1" tooltips="1" connect="1" arrows="1" fold="1" page="1" pageScale="1" pageWidth="1700" pageHeight="1100" math="0" shadow="0">
      <root>
        <mxCell id="0" />
        <mxCell id="1" parent="0" />
        <mxCell id="IjMlEGA6C4cZhFkMJeuD-1" value="用户" style="rounded=0;whiteSpace=wrap;html=1;" vertex="1" parent="1">
          <mxGeometry x="200" y="280" width="100" height="40" as="geometry" />
        </mxCell>
        <mxCell id="IjMlEGA6C4cZhFkMJeuD-2" value="id" style="ellipse;whiteSpace=wrap;html=1;" vertex="1" parent="1">
          <mxGeometry x="120" y="200" width="90" height="50" as="geometry" />
        </mxCell>
        <mxCell id="IjMlEGA6C4cZhFkMJeuD-3" value="smc用户名" style="ellipse;whiteSpace=wrap;html=1;" vertex="1" parent="1">
          <mxGeometry x="290" y="200" width="90" height="50" as="geometry" />
        </mxCell>
        <mxCell id="IjMlEGA6C4cZhFkMJeuD-4" value="smc账户密码" style="ellipse;whiteSpace=wrap;html=1;" vertex="1" parent="1">
          <mxGeometry x="290" y="360" width="90" height="50" as="geometry" />
        </mxCell>
        <mxCell id="IjMlEGA6C4cZhFkMJeuD-5" value="更新人邮箱" style="ellipse;whiteSpace=wrap;html=1;" vertex="1" parent="1">
          <mxGeometry x="120" y="360" width="90" height="50" as="geometry" />
        </mxCell>
        <mxCell id="IjMlEGA6C4cZhFkMJeuD-6" value="数据体系" style="ellipse;whiteSpace=wrap;html=1;" vertex="1" parent="1">
          <mxGeometry x="640" y="180" width="90" height="50" as="geometry" />
        </mxCell>
        <mxCell id="IjMlEGA6C4cZhFkMJeuD-7" value="smc人群" style="rounded=0;whiteSpace=wrap;html=1;" vertex="1" parent="1">
          <mxGeometry x="750" y="290" width="120" height="60" as="geometry" />
        </mxCell>
        <mxCell id="IjMlEGA6C4cZhFkMJeuD-8" value="cdp人群名称" style="ellipse;whiteSpace=wrap;html=1;" vertex="1" parent="1">
          <mxGeometry x="750" y="170" width="90" height="50" as="geometry" />
        </mxCell>
        <mxCell id="IjMlEGA6C4cZhFkMJeuD-9" value="cdp人群code" style="ellipse;whiteSpace=wrap;html=1;" vertex="1" parent="1">
          <mxGeometry x="860" y="180" width="90" height="50" as="geometry" />
        </mxCell>
        <mxCell id="IjMlEGA6C4cZhFkMJeuD-10" value="所属组id" style="ellipse;whiteSpace=wrap;html=1;" vertex="1" parent="1">
          <mxGeometry x="930" y="230" width="90" height="50" as="geometry" />
        </mxCell>
        <mxCell id="IjMlEGA6C4cZhFkMJeuD-11" value="smc人群数量" style="ellipse;whiteSpace=wrap;html=1;" vertex="1" parent="1">
          <mxGeometry x="580" y="340" width="90" height="50" as="geometry" />
        </mxCell>
        <mxCell id="IjMlEGA6C4cZhFkMJeuD-12" value="smc人群名称" style="ellipse;whiteSpace=wrap;html=1;" vertex="1" parent="1">
          <mxGeometry x="945" y="300" width="90" height="50" as="geometry" />
        </mxCell>
        <mxCell id="IjMlEGA6C4cZhFkMJeuD-13" value="cdp人群数量" style="ellipse;whiteSpace=wrap;html=1;" vertex="1" parent="1">
          <mxGeometry x="580" y="230" width="90" height="50" as="geometry" />
        </mxCell>
        <mxCell id="IjMlEGA6C4cZhFkMJeuD-14" value="smc人群主键" style="ellipse;whiteSpace=wrap;html=1;" vertex="1" parent="1">
          <mxGeometry x="900" y="360" width="90" height="50" as="geometry" />
        </mxCell>
        <mxCell id="IjMlEGA6C4cZhFkMJeuD-15" value="匹配率" style="ellipse;whiteSpace=wrap;html=1;" vertex="1" parent="1">
          <mxGeometry x="630" y="390" width="90" height="50" as="geometry" />
        </mxCell>
        <mxCell id="IjMlEGA6C4cZhFkMJeuD-17" value="状态" style="ellipse;whiteSpace=wrap;html=1;" vertex="1" parent="1">
          <mxGeometry x="720" y="420" width="90" height="50" as="geometry" />
        </mxCell>
        <mxCell id="IjMlEGA6C4cZhFkMJeuD-18" value="描述信息" style="ellipse;whiteSpace=wrap;html=1;" vertex="1" parent="1">
          <mxGeometry x="850" y="410" width="90" height="50" as="geometry" />
        </mxCell>
        <mxCell id="IjMlEGA6C4cZhFkMJeuD-19" value="smc画像" style="rounded=0;whiteSpace=wrap;html=1;" vertex="1" parent="1">
          <mxGeometry x="210" y="685" width="120" height="60" as="geometry" />
        </mxCell>
        <mxCell id="IjMlEGA6C4cZhFkMJeuD-20" value="id" style="ellipse;whiteSpace=wrap;html=1;" vertex="1" parent="1">
          <mxGeometry x="50" y="580" width="100" height="50" as="geometry" />
        </mxCell>
        <mxCell id="IjMlEGA6C4cZhFkMJeuD-21" value="数据体系code" style="ellipse;whiteSpace=wrap;html=1;" vertex="1" parent="1">
          <mxGeometry x="300" y="560" width="90" height="50" as="geometry" />
        </mxCell>
        <mxCell id="IjMlEGA6C4cZhFkMJeuD-22" value="cdp系统人群名称" style="ellipse;whiteSpace=wrap;html=1;" vertex="1" parent="1">
          <mxGeometry x="440" y="650" width="110" height="50" as="geometry" />
        </mxCell>
        <mxCell id="IjMlEGA6C4cZhFkMJeuD-23" value="cdp系统人群code" style="ellipse;whiteSpace=wrap;html=1;" vertex="1" parent="1">
          <mxGeometry x="420" y="740" width="100" height="50" as="geometry" />
        </mxCell>
        <mxCell id="IjMlEGA6C4cZhFkMJeuD-24" value="所属组ID" style="ellipse;whiteSpace=wrap;html=1;" vertex="1" parent="1">
          <mxGeometry x="290" y="830" width="90" height="50" as="geometry" />
        </mxCell>
        <mxCell id="IjMlEGA6C4cZhFkMJeuD-25" value="smc画像名称" style="ellipse;whiteSpace=wrap;html=1;" vertex="1" parent="1">
          <mxGeometry x="30" y="770" width="90" height="50" as="geometry" />
        </mxCell>
        <mxCell id="IjMlEGA6C4cZhFkMJeuD-26" value="cdp人群数量" style="ellipse;whiteSpace=wrap;html=1;" vertex="1" parent="1">
          <mxGeometry x="10" y="640" width="90" height="50" as="geometry" />
        </mxCell>
        <mxCell id="IjMlEGA6C4cZhFkMJeuD-27" value="smc人群数量" style="ellipse;whiteSpace=wrap;html=1;" vertex="1" parent="1">
          <mxGeometry x="10" y="710" width="90" height="50" as="geometry" />
        </mxCell>
        <mxCell id="IjMlEGA6C4cZhFkMJeuD-28" value="匹配率&lt;span style=&quot;color: rgba(0, 0, 0, 0); font-family: monospace; font-size: 0px; text-align: start;&quot;&gt;%3CmxGraphModel%3E%3Croot%3E%3CmxCell%20id%3D%220%22%2F%3E%3CmxCell%20id%3D%221%22%20parent%3D%220%22%2F%3E%3CmxCell%20id%3D%222%22%20value%3D%22%22%20style%3D%22ellipse%3BwhiteSpace%3Dwrap%3Bhtml%3D1%3B%22%20vertex%3D%221%22%20parent%3D%221%22%3E%3CmxGeometry%20x%3D%22500%22%20y%3D%22120%22%20width%3D%2290%22%20height%3D%2250%22%20as%3D%22geometry%22%2F%3E%3C%2FmxCell%3E%3C%2Froot%3E%3C%2FmxGraphModel%3E&lt;/span&gt;" style="ellipse;whiteSpace=wrap;html=1;" vertex="1" parent="1">
          <mxGeometry x="400" y="600" width="90" height="50" as="geometry" />
        </mxCell>
        <mxCell id="IjMlEGA6C4cZhFkMJeuD-29" value="人群规模匹配率" style="ellipse;whiteSpace=wrap;html=1;" vertex="1" parent="1">
          <mxGeometry x="380" y="800" width="90" height="50" as="geometry" />
        </mxCell>
        <mxCell id="IjMlEGA6C4cZhFkMJeuD-30" value="状态" style="ellipse;whiteSpace=wrap;html=1;" vertex="1" parent="1">
          <mxGeometry x="100" y="820" width="90" height="50" as="geometry" />
        </mxCell>
        <mxCell id="IjMlEGA6C4cZhFkMJeuD-31" value="构建开始时间" style="ellipse;whiteSpace=wrap;html=1;" vertex="1" parent="1">
          <mxGeometry x="150" y="560" width="90" height="50" as="geometry" />
        </mxCell>
        <mxCell id="IjMlEGA6C4cZhFkMJeuD-32" value="构建结束时间" style="ellipse;whiteSpace=wrap;html=1;" vertex="1" parent="1">
          <mxGeometry x="190" y="840" width="90" height="50" as="geometry" />
        </mxCell>
        <mxCell id="IjMlEGA6C4cZhFkMJeuD-33" value="smc历史推送表" style="rounded=0;whiteSpace=wrap;html=1;" vertex="1" parent="1">
          <mxGeometry x="885" y="700" width="120" height="60" as="geometry" />
        </mxCell>
        <mxCell id="IjMlEGA6C4cZhFkMJeuD-34" value="id" style="ellipse;whiteSpace=wrap;html=1;" vertex="1" parent="1">
          <mxGeometry x="760" y="620" width="100" height="50" as="geometry" />
        </mxCell>
        <mxCell id="IjMlEGA6C4cZhFkMJeuD-35" value="人群或者画像推送的ID" style="ellipse;whiteSpace=wrap;html=1;" vertex="1" parent="1">
          <mxGeometry x="970" y="600" width="140" height="50" as="geometry" />
        </mxCell>
        <mxCell id="IjMlEGA6C4cZhFkMJeuD-36" value="type" style="ellipse;whiteSpace=wrap;html=1;" vertex="1" parent="1">
          <mxGeometry x="770" y="790" width="100" height="50" as="geometry" />
        </mxCell>
        <mxCell id="IjMlEGA6C4cZhFkMJeuD-37" value="状态" style="ellipse;whiteSpace=wrap;html=1;" vertex="1" parent="1">
          <mxGeometry x="1050" y="700" width="100" height="50" as="geometry" />
        </mxCell>
        <mxCell id="IjMlEGA6C4cZhFkMJeuD-38" value="事件发生时间" style="ellipse;whiteSpace=wrap;html=1;" vertex="1" parent="1">
          <mxGeometry x="960" y="790" width="100" height="50" as="geometry" />
        </mxCell>
        <mxCell id="IjMlEGA6C4cZhFkMJeuD-40" value="" style="endArrow=none;html=1;rounded=0;entryX=0.5;entryY=1;entryDx=0;entryDy=0;" edge="1" parent="1" target="IjMlEGA6C4cZhFkMJeuD-3">
          <mxGeometry width="50" height="50" relative="1" as="geometry">
            <mxPoint x="250" y="280" as="sourcePoint" />
            <mxPoint x="300" y="230" as="targetPoint" />
          </mxGeometry>
        </mxCell>
        <mxCell id="IjMlEGA6C4cZhFkMJeuD-42" value="" style="endArrow=none;html=1;rounded=0;entryX=0.5;entryY=1;entryDx=0;entryDy=0;exitX=0.5;exitY=0;exitDx=0;exitDy=0;" edge="1" parent="1" source="IjMlEGA6C4cZhFkMJeuD-1" target="IjMlEGA6C4cZhFkMJeuD-2">
          <mxGeometry width="50" height="50" relative="1" as="geometry">
            <mxPoint x="160" y="300" as="sourcePoint" />
            <mxPoint x="210" y="250" as="targetPoint" />
          </mxGeometry>
        </mxCell>
        <mxCell id="IjMlEGA6C4cZhFkMJeuD-43" value="" style="endArrow=none;html=1;rounded=0;entryX=0.5;entryY=1;entryDx=0;entryDy=0;exitX=0.5;exitY=0;exitDx=0;exitDy=0;" edge="1" parent="1" source="IjMlEGA6C4cZhFkMJeuD-5" target="IjMlEGA6C4cZhFkMJeuD-1">
          <mxGeometry width="50" height="50" relative="1" as="geometry">
            <mxPoint x="210" y="370" as="sourcePoint" />
            <mxPoint x="260" y="320" as="targetPoint" />
          </mxGeometry>
        </mxCell>
        <mxCell id="IjMlEGA6C4cZhFkMJeuD-44" value="" style="endArrow=none;html=1;rounded=0;entryX=0.5;entryY=1;entryDx=0;entryDy=0;" edge="1" parent="1" target="IjMlEGA6C4cZhFkMJeuD-1">
          <mxGeometry width="50" height="50" relative="1" as="geometry">
            <mxPoint x="330" y="360" as="sourcePoint" />
            <mxPoint x="380" y="310" as="targetPoint" />
          </mxGeometry>
        </mxCell>
        <mxCell id="IjMlEGA6C4cZhFkMJeuD-45" value="拥有" style="rhombus;whiteSpace=wrap;html=1;" vertex="1" parent="1">
          <mxGeometry x="200" y="450" width="120" height="60" as="geometry" />
        </mxCell>
        <mxCell id="IjMlEGA6C4cZhFkMJeuD-46" value="" style="endArrow=none;html=1;rounded=0;" edge="1" parent="1">
          <mxGeometry width="50" height="50" relative="1" as="geometry">
            <mxPoint x="260" y="450" as="sourcePoint" />
            <mxPoint x="250" y="320" as="targetPoint" />
          </mxGeometry>
        </mxCell>
        <mxCell id="IjMlEGA6C4cZhFkMJeuD-47" value="" style="endArrow=none;html=1;rounded=0;exitX=0.5;exitY=0;exitDx=0;exitDy=0;" edge="1" parent="1" source="IjMlEGA6C4cZhFkMJeuD-19">
          <mxGeometry width="50" height="50" relative="1" as="geometry">
            <mxPoint x="210" y="560" as="sourcePoint" />
            <mxPoint x="260" y="510" as="targetPoint" />
          </mxGeometry>
        </mxCell>
        <mxCell id="IjMlEGA6C4cZhFkMJeuD-48" value="1" style="text;html=1;align=center;verticalAlign=middle;resizable=0;points=[];autosize=1;strokeColor=none;fillColor=none;" vertex="1" parent="1">
          <mxGeometry x="230" y="390" width="30" height="30" as="geometry" />
        </mxCell>
        <mxCell id="IjMlEGA6C4cZhFkMJeuD-49" value="n" style="text;html=1;align=center;verticalAlign=middle;resizable=0;points=[];autosize=1;strokeColor=none;fillColor=none;" vertex="1" parent="1">
          <mxGeometry x="235" y="610" width="30" height="30" as="geometry" />
        </mxCell>
        <mxCell id="IjMlEGA6C4cZhFkMJeuD-51" value="拥有" style="rhombus;whiteSpace=wrap;html=1;" vertex="1" parent="1">
          <mxGeometry x="420" y="280" width="105" height="60" as="geometry" />
        </mxCell>
        <mxCell id="IjMlEGA6C4cZhFkMJeuD-52" value="" style="endArrow=none;html=1;rounded=0;entryX=0.5;entryY=1;entryDx=0;entryDy=0;" edge="1" parent="1" target="IjMlEGA6C4cZhFkMJeuD-8">
          <mxGeometry width="50" height="50" relative="1" as="geometry">
            <mxPoint x="800" y="290" as="sourcePoint" />
            <mxPoint x="850" y="240" as="targetPoint" />
          </mxGeometry>
        </mxCell>
        <mxCell id="IjMlEGA6C4cZhFkMJeuD-54" value="" style="endArrow=none;html=1;rounded=0;" edge="1" parent="1">
          <mxGeometry width="50" height="50" relative="1" as="geometry">
            <mxPoint x="300" y="300" as="sourcePoint" />
            <mxPoint x="420" y="310" as="targetPoint" />
          </mxGeometry>
        </mxCell>
        <mxCell id="IjMlEGA6C4cZhFkMJeuD-55" value="" style="endArrow=none;html=1;rounded=0;entryX=0;entryY=0.5;entryDx=0;entryDy=0;" edge="1" parent="1" target="IjMlEGA6C4cZhFkMJeuD-7">
          <mxGeometry width="50" height="50" relative="1" as="geometry">
            <mxPoint x="525" y="310" as="sourcePoint" />
            <mxPoint x="575" y="260" as="targetPoint" />
          </mxGeometry>
        </mxCell>
        <mxCell id="IjMlEGA6C4cZhFkMJeuD-56" value="1" style="text;html=1;align=center;verticalAlign=middle;resizable=0;points=[];autosize=1;strokeColor=none;fillColor=none;" vertex="1" parent="1">
          <mxGeometry x="350" y="280" width="30" height="30" as="geometry" />
        </mxCell>
        <mxCell id="IjMlEGA6C4cZhFkMJeuD-57" value="n" style="text;html=1;align=center;verticalAlign=middle;resizable=0;points=[];autosize=1;strokeColor=none;fillColor=none;" vertex="1" parent="1">
          <mxGeometry x="620" y="285" width="30" height="30" as="geometry" />
        </mxCell>
        <mxCell id="IjMlEGA6C4cZhFkMJeuD-58" value="" style="endArrow=none;html=1;rounded=0;entryX=1;entryY=1;entryDx=0;entryDy=0;exitX=0.25;exitY=0;exitDx=0;exitDy=0;" edge="1" parent="1" source="IjMlEGA6C4cZhFkMJeuD-7" target="IjMlEGA6C4cZhFkMJeuD-6">
          <mxGeometry width="50" height="50" relative="1" as="geometry">
            <mxPoint x="700" y="280" as="sourcePoint" />
            <mxPoint x="750" y="230" as="targetPoint" />
          </mxGeometry>
        </mxCell>
        <mxCell id="IjMlEGA6C4cZhFkMJeuD-59" value="" style="endArrow=none;html=1;rounded=0;exitX=1;exitY=1;exitDx=0;exitDy=0;entryX=0;entryY=0;entryDx=0;entryDy=0;" edge="1" parent="1" source="IjMlEGA6C4cZhFkMJeuD-13" target="IjMlEGA6C4cZhFkMJeuD-7">
          <mxGeometry width="50" height="50" relative="1" as="geometry">
            <mxPoint x="670" y="320" as="sourcePoint" />
            <mxPoint x="720" y="270" as="targetPoint" />
          </mxGeometry>
        </mxCell>
        <mxCell id="IjMlEGA6C4cZhFkMJeuD-60" value="" style="endArrow=none;html=1;rounded=0;exitX=0.75;exitY=0;exitDx=0;exitDy=0;" edge="1" parent="1" source="IjMlEGA6C4cZhFkMJeuD-7">
          <mxGeometry width="50" height="50" relative="1" as="geometry">
            <mxPoint x="850" y="280" as="sourcePoint" />
            <mxPoint x="900" y="230" as="targetPoint" />
          </mxGeometry>
        </mxCell>
        <mxCell id="IjMlEGA6C4cZhFkMJeuD-63" value="" style="endArrow=none;html=1;rounded=0;entryX=0;entryY=0.5;entryDx=0;entryDy=0;" edge="1" parent="1" source="IjMlEGA6C4cZhFkMJeuD-7" target="IjMlEGA6C4cZhFkMJeuD-10">
          <mxGeometry width="50" height="50" relative="1" as="geometry">
            <mxPoint x="930" y="320" as="sourcePoint" />
            <mxPoint x="980" y="270" as="targetPoint" />
          </mxGeometry>
        </mxCell>
        <mxCell id="IjMlEGA6C4cZhFkMJeuD-64" value="" style="endArrow=none;html=1;rounded=0;exitX=1;exitY=0.5;exitDx=0;exitDy=0;entryX=0;entryY=0.75;entryDx=0;entryDy=0;" edge="1" parent="1" source="IjMlEGA6C4cZhFkMJeuD-11" target="IjMlEGA6C4cZhFkMJeuD-7">
          <mxGeometry width="50" height="50" relative="1" as="geometry">
            <mxPoint x="670" y="380" as="sourcePoint" />
            <mxPoint x="720" y="330" as="targetPoint" />
          </mxGeometry>
        </mxCell>
        <mxCell id="IjMlEGA6C4cZhFkMJeuD-65" value="" style="endArrow=none;html=1;rounded=0;entryX=0.25;entryY=1;entryDx=0;entryDy=0;" edge="1" parent="1" target="IjMlEGA6C4cZhFkMJeuD-7">
          <mxGeometry width="50" height="50" relative="1" as="geometry">
            <mxPoint x="720" y="410" as="sourcePoint" />
            <mxPoint x="770" y="360" as="targetPoint" />
          </mxGeometry>
        </mxCell>
        <mxCell id="IjMlEGA6C4cZhFkMJeuD-66" value="" style="endArrow=none;html=1;rounded=0;entryX=0.5;entryY=1;entryDx=0;entryDy=0;exitX=0.5;exitY=0;exitDx=0;exitDy=0;" edge="1" parent="1" source="IjMlEGA6C4cZhFkMJeuD-17" target="IjMlEGA6C4cZhFkMJeuD-7">
          <mxGeometry width="50" height="50" relative="1" as="geometry">
            <mxPoint x="785" y="420" as="sourcePoint" />
            <mxPoint x="835" y="370" as="targetPoint" />
          </mxGeometry>
        </mxCell>
        <mxCell id="IjMlEGA6C4cZhFkMJeuD-67" value="" style="endArrow=none;html=1;rounded=0;entryX=0;entryY=0.5;entryDx=0;entryDy=0;" edge="1" parent="1" target="IjMlEGA6C4cZhFkMJeuD-12">
          <mxGeometry width="50" height="50" relative="1" as="geometry">
            <mxPoint x="870" y="325" as="sourcePoint" />
            <mxPoint x="920" y="275" as="targetPoint" />
          </mxGeometry>
        </mxCell>
        <mxCell id="IjMlEGA6C4cZhFkMJeuD-68" value="" style="endArrow=none;html=1;rounded=0;entryX=0.75;entryY=1;entryDx=0;entryDy=0;exitX=0.5;exitY=0;exitDx=0;exitDy=0;" edge="1" parent="1" source="IjMlEGA6C4cZhFkMJeuD-18" target="IjMlEGA6C4cZhFkMJeuD-7">
          <mxGeometry width="50" height="50" relative="1" as="geometry">
            <mxPoint x="840" y="400" as="sourcePoint" />
            <mxPoint x="890" y="350" as="targetPoint" />
          </mxGeometry>
        </mxCell>
        <mxCell id="IjMlEGA6C4cZhFkMJeuD-69" value="" style="endArrow=none;html=1;rounded=0;entryX=0.5;entryY=0;entryDx=0;entryDy=0;" edge="1" parent="1" target="IjMlEGA6C4cZhFkMJeuD-14">
          <mxGeometry width="50" height="50" relative="1" as="geometry">
            <mxPoint x="870" y="350" as="sourcePoint" />
            <mxPoint x="920" y="300" as="targetPoint" />
          </mxGeometry>
        </mxCell>
        <mxCell id="IjMlEGA6C4cZhFkMJeuD-70" value="拥有" style="rhombus;whiteSpace=wrap;html=1;" vertex="1" parent="1">
          <mxGeometry x="610" y="690" width="100" height="60" as="geometry" />
        </mxCell>
        <mxCell id="IjMlEGA6C4cZhFkMJeuD-72" value="" style="endArrow=none;html=1;rounded=0;exitX=1;exitY=0.5;exitDx=0;exitDy=0;entryX=0;entryY=0.5;entryDx=0;entryDy=0;" edge="1" parent="1" source="IjMlEGA6C4cZhFkMJeuD-19" target="IjMlEGA6C4cZhFkMJeuD-70">
          <mxGeometry width="50" height="50" relative="1" as="geometry">
            <mxPoint x="370" y="740" as="sourcePoint" />
            <mxPoint x="420" y="690" as="targetPoint" />
          </mxGeometry>
        </mxCell>
        <mxCell id="IjMlEGA6C4cZhFkMJeuD-73" value="" style="endArrow=none;html=1;rounded=0;exitX=1;exitY=0.5;exitDx=0;exitDy=0;entryX=0;entryY=0.5;entryDx=0;entryDy=0;" edge="1" parent="1" source="IjMlEGA6C4cZhFkMJeuD-70" target="IjMlEGA6C4cZhFkMJeuD-33">
          <mxGeometry width="50" height="50" relative="1" as="geometry">
            <mxPoint x="750" y="750" as="sourcePoint" />
            <mxPoint x="800" y="700" as="targetPoint" />
          </mxGeometry>
        </mxCell>
        <mxCell id="IjMlEGA6C4cZhFkMJeuD-74" value="1" style="text;html=1;align=center;verticalAlign=middle;resizable=0;points=[];autosize=1;strokeColor=none;fillColor=none;" vertex="1" parent="1">
          <mxGeometry x="575" y="695" width="30" height="30" as="geometry" />
        </mxCell>
        <mxCell id="IjMlEGA6C4cZhFkMJeuD-75" value="1" style="text;html=1;align=center;verticalAlign=middle;resizable=0;points=[];autosize=1;strokeColor=none;fillColor=none;" vertex="1" parent="1">
          <mxGeometry x="780" y="700" width="30" height="30" as="geometry" />
        </mxCell>
        <mxCell id="IjMlEGA6C4cZhFkMJeuD-76" value="" style="endArrow=none;html=1;rounded=0;entryX=0.5;entryY=1;entryDx=0;entryDy=0;exitX=0.25;exitY=0;exitDx=0;exitDy=0;" edge="1" parent="1" source="IjMlEGA6C4cZhFkMJeuD-19" target="IjMlEGA6C4cZhFkMJeuD-31">
          <mxGeometry width="50" height="50" relative="1" as="geometry">
            <mxPoint x="230" y="680" as="sourcePoint" />
            <mxPoint x="260" y="620" as="targetPoint" />
          </mxGeometry>
        </mxCell>
        <mxCell id="IjMlEGA6C4cZhFkMJeuD-77" value="" style="endArrow=none;html=1;rounded=0;entryX=0.633;entryY=1.025;entryDx=0;entryDy=0;entryPerimeter=0;" edge="1" parent="1" target="IjMlEGA6C4cZhFkMJeuD-7">
          <mxGeometry width="50" height="50" relative="1" as="geometry">
            <mxPoint x="850" y="500" as="sourcePoint" />
            <mxPoint x="730" y="500" as="targetPoint" />
          </mxGeometry>
        </mxCell>
        <mxCell id="IjMlEGA6C4cZhFkMJeuD-78" value="拥有" style="rhombus;whiteSpace=wrap;html=1;" vertex="1" parent="1">
          <mxGeometry x="790" y="500" width="120" height="50" as="geometry" />
        </mxCell>
        <mxCell id="IjMlEGA6C4cZhFkMJeuD-79" value="" style="endArrow=none;html=1;rounded=0;entryX=0.5;entryY=1;entryDx=0;entryDy=0;exitX=0.25;exitY=0;exitDx=0;exitDy=0;" edge="1" parent="1" source="IjMlEGA6C4cZhFkMJeuD-33" target="IjMlEGA6C4cZhFkMJeuD-78">
          <mxGeometry width="50" height="50" relative="1" as="geometry">
            <mxPoint x="680" y="550" as="sourcePoint" />
            <mxPoint x="730" y="500" as="targetPoint" />
          </mxGeometry>
        </mxCell>
        <mxCell id="IjMlEGA6C4cZhFkMJeuD-80" value="1" style="text;html=1;align=center;verticalAlign=middle;resizable=0;points=[];autosize=1;strokeColor=none;fillColor=none;" vertex="1" parent="1">
          <mxGeometry x="815" y="475" width="30" height="30" as="geometry" />
        </mxCell>
        <mxCell id="IjMlEGA6C4cZhFkMJeuD-81" value="1" style="text;html=1;align=center;verticalAlign=middle;resizable=0;points=[];autosize=1;strokeColor=none;fillColor=none;" vertex="1" parent="1">
          <mxGeometry x="860" y="570" width="30" height="30" as="geometry" />
        </mxCell>
        <mxCell id="IjMlEGA6C4cZhFkMJeuD-82" value="" style="endArrow=none;html=1;rounded=0;entryX=1;entryY=1;entryDx=0;entryDy=0;exitX=0;exitY=0;exitDx=0;exitDy=0;" edge="1" parent="1" source="IjMlEGA6C4cZhFkMJeuD-19" target="IjMlEGA6C4cZhFkMJeuD-20">
          <mxGeometry width="50" height="50" relative="1" as="geometry">
            <mxPoint x="130" y="680" as="sourcePoint" />
            <mxPoint x="180" y="630" as="targetPoint" />
          </mxGeometry>
        </mxCell>
        <mxCell id="IjMlEGA6C4cZhFkMJeuD-83" value="" style="endArrow=none;html=1;rounded=0;exitX=1;exitY=0.5;exitDx=0;exitDy=0;entryX=0;entryY=0.5;entryDx=0;entryDy=0;" edge="1" parent="1" source="IjMlEGA6C4cZhFkMJeuD-26" target="IjMlEGA6C4cZhFkMJeuD-19">
          <mxGeometry width="50" height="50" relative="1" as="geometry">
            <mxPoint x="130" y="730" as="sourcePoint" />
            <mxPoint x="180" y="680" as="targetPoint" />
          </mxGeometry>
        </mxCell>
        <mxCell id="IjMlEGA6C4cZhFkMJeuD-84" value="" style="endArrow=none;html=1;rounded=0;exitX=1;exitY=0.5;exitDx=0;exitDy=0;entryX=0;entryY=0.75;entryDx=0;entryDy=0;" edge="1" parent="1" source="IjMlEGA6C4cZhFkMJeuD-27" target="IjMlEGA6C4cZhFkMJeuD-19">
          <mxGeometry width="50" height="50" relative="1" as="geometry">
            <mxPoint x="140" y="780" as="sourcePoint" />
            <mxPoint x="190" y="730" as="targetPoint" />
          </mxGeometry>
        </mxCell>
        <mxCell id="IjMlEGA6C4cZhFkMJeuD-85" value="" style="endArrow=none;html=1;rounded=0;exitX=1;exitY=0.5;exitDx=0;exitDy=0;entryX=0.25;entryY=1;entryDx=0;entryDy=0;" edge="1" parent="1" source="IjMlEGA6C4cZhFkMJeuD-25" target="IjMlEGA6C4cZhFkMJeuD-19">
          <mxGeometry width="50" height="50" relative="1" as="geometry">
            <mxPoint x="140" y="810" as="sourcePoint" />
            <mxPoint x="230" y="750" as="targetPoint" />
          </mxGeometry>
        </mxCell>
        <mxCell id="IjMlEGA6C4cZhFkMJeuD-86" value="" style="endArrow=none;html=1;rounded=0;exitX=1;exitY=0;exitDx=0;exitDy=0;entryX=0.45;entryY=0.992;entryDx=0;entryDy=0;entryPerimeter=0;" edge="1" parent="1" source="IjMlEGA6C4cZhFkMJeuD-30" target="IjMlEGA6C4cZhFkMJeuD-19">
          <mxGeometry width="50" height="50" relative="1" as="geometry">
            <mxPoint x="190" y="830" as="sourcePoint" />
            <mxPoint x="240" y="780" as="targetPoint" />
          </mxGeometry>
        </mxCell>
        <mxCell id="IjMlEGA6C4cZhFkMJeuD-87" value="" style="endArrow=none;html=1;rounded=0;entryX=0.5;entryY=1;entryDx=0;entryDy=0;" edge="1" parent="1" target="IjMlEGA6C4cZhFkMJeuD-19">
          <mxGeometry width="50" height="50" relative="1" as="geometry">
            <mxPoint x="245" y="840" as="sourcePoint" />
            <mxPoint x="295" y="790" as="targetPoint" />
          </mxGeometry>
        </mxCell>
        <mxCell id="IjMlEGA6C4cZhFkMJeuD-88" value="" style="endArrow=none;html=1;rounded=0;entryX=0.75;entryY=1;entryDx=0;entryDy=0;exitX=0.5;exitY=0;exitDx=0;exitDy=0;" edge="1" parent="1" source="IjMlEGA6C4cZhFkMJeuD-24" target="IjMlEGA6C4cZhFkMJeuD-19">
          <mxGeometry width="50" height="50" relative="1" as="geometry">
            <mxPoint x="310" y="820" as="sourcePoint" />
            <mxPoint x="360" y="770" as="targetPoint" />
          </mxGeometry>
        </mxCell>
        <mxCell id="IjMlEGA6C4cZhFkMJeuD-89" value="" style="endArrow=none;html=1;rounded=0;entryX=0.5;entryY=1;entryDx=0;entryDy=0;" edge="1" parent="1" target="IjMlEGA6C4cZhFkMJeuD-21">
          <mxGeometry width="50" height="50" relative="1" as="geometry">
            <mxPoint x="300" y="685" as="sourcePoint" />
            <mxPoint x="350" y="635" as="targetPoint" />
          </mxGeometry>
        </mxCell>
        <mxCell id="IjMlEGA6C4cZhFkMJeuD-90" value="" style="endArrow=none;html=1;rounded=0;entryX=0;entryY=1;entryDx=0;entryDy=0;" edge="1" parent="1" target="IjMlEGA6C4cZhFkMJeuD-28">
          <mxGeometry width="50" height="50" relative="1" as="geometry">
            <mxPoint x="330" y="690" as="sourcePoint" />
            <mxPoint x="380" y="640" as="targetPoint" />
          </mxGeometry>
        </mxCell>
        <mxCell id="IjMlEGA6C4cZhFkMJeuD-91" value="" style="endArrow=none;html=1;rounded=0;" edge="1" parent="1">
          <mxGeometry width="50" height="50" relative="1" as="geometry">
            <mxPoint x="870" y="810" as="sourcePoint" />
            <mxPoint x="920" y="760" as="targetPoint" />
          </mxGeometry>
        </mxCell>
        <mxCell id="IjMlEGA6C4cZhFkMJeuD-92" value="" style="endArrow=none;html=1;rounded=0;entryX=0;entryY=0;entryDx=0;entryDy=0;exitX=1;exitY=1;exitDx=0;exitDy=0;" edge="1" parent="1" source="IjMlEGA6C4cZhFkMJeuD-34" target="IjMlEGA6C4cZhFkMJeuD-33">
          <mxGeometry width="50" height="50" relative="1" as="geometry">
            <mxPoint x="850" y="720" as="sourcePoint" />
            <mxPoint x="900" y="670" as="targetPoint" />
          </mxGeometry>
        </mxCell>
        <mxCell id="IjMlEGA6C4cZhFkMJeuD-93" value="" style="endArrow=none;html=1;rounded=0;entryX=0;entryY=1;entryDx=0;entryDy=0;" edge="1" parent="1" target="IjMlEGA6C4cZhFkMJeuD-35">
          <mxGeometry width="50" height="50" relative="1" as="geometry">
            <mxPoint x="950" y="700" as="sourcePoint" />
            <mxPoint x="1010" y="650" as="targetPoint" />
          </mxGeometry>
        </mxCell>
        <mxCell id="IjMlEGA6C4cZhFkMJeuD-94" value="" style="endArrow=none;html=1;rounded=0;entryX=0;entryY=0.5;entryDx=0;entryDy=0;exitX=1;exitY=0.25;exitDx=0;exitDy=0;" edge="1" parent="1" source="IjMlEGA6C4cZhFkMJeuD-33" target="IjMlEGA6C4cZhFkMJeuD-37">
          <mxGeometry width="50" height="50" relative="1" as="geometry">
            <mxPoint x="1020" y="730" as="sourcePoint" />
            <mxPoint x="1070" y="680" as="targetPoint" />
          </mxGeometry>
        </mxCell>
        <mxCell id="IjMlEGA6C4cZhFkMJeuD-95" value="" style="endArrow=none;html=1;rounded=0;entryX=0.75;entryY=1;entryDx=0;entryDy=0;" edge="1" parent="1" target="IjMlEGA6C4cZhFkMJeuD-33">
          <mxGeometry width="50" height="50" relative="1" as="geometry">
            <mxPoint x="1010" y="790" as="sourcePoint" />
            <mxPoint x="1070" y="750" as="targetPoint" />
          </mxGeometry>
        </mxCell>
      </root>
    </mxGraphModel>
  </diagram>
</mxfile>
